<svg xmlns="http://www.w3.org/2000/svg" width="315" height="50" fill="none">
  <path fill="#202020" d="M314.6 1.2c.5 0 .3-.5.4-.5-.8 0-.4.6-.4.5ZM306.8 2.4l.2-.2-1.2.5 1-.3ZM299.5 2.5c.7.8 2.7-.2 4 .1l.2.2.6-.7c-1.6.1-3.7.6-4.8.4ZM295.6.7c.3.3-.8.3 1 .1h-1ZM296.4.7c-.5-.3.7 0 0 0ZM292.8 1l1-.3c-.2-.2-1.1-.3-.8-.4-1 .2-.8.4-.2.7ZM291.9 1.6l.5-.1c-.1-.1-.2-.2-.5 0ZM293.5 1.2l-1.1.3c.1.1.2.4.5-.1 0 .2.1 0 .6-.2ZM294.1 1.3c.6.2 1.3.3.3.6 2-.2 1.7-.7-.3-.6ZM299.2 3.4l.7.2.7-.3c-.3.1-1.5-.2-1.4 0ZM286.5.6l.4.7.8-.2c-.4-.1-1.1-.2-1.2-.5ZM287 1.3l-1.2.4c1 0 1.2-.2 1.1-.4ZM291.7 2.5l1.8-.6-2.2.6h.4ZM282.2.7l.7-.4-1.2.6.5-.2ZM279.4.8c.5-.4-.7-.6-.2-.8-.7 0-1.4.4-2 .7.7-.2 1.3-.2 2.2 0v.1Z"/>
  <path fill="#202020" d="m276.3 1 1-.3c-.4 0-.7.2-1 .4ZM284 1.6c-.2-.1-.3-.4-1-.5l.5.5h.4ZM283.5 1.6h-1 1ZM284 1.6ZM288.8 2.1c-.7.3-2 .6-.7 1 .4-.3-.3-.5.7-1ZM284.6 2.2l1.2.1c0-.1-.3-.3 0-.5l-1.2.4ZM284 2.4l.6-.2h-.4l-.2.2ZM278.3 1.5c-.5.2-1 .3-1.7.3l2 .1c.1-.1.4-.4-.3-.4ZM280.8 1.6h-.1.1ZM270.4 2ZM278.8 2c.5.1.8 0 1-.2l-1.2.1.2.1ZM274.5 1.4l1 .2c-.4-.1-.9-.4-1-.2ZM280.5 1.5h.1c-.2-.1-.1 0 0 0ZM280.5 1.5l-.6.3c.3 0 .6 0 .8-.2h-.2v-.1ZM268.6 5.3c0-.5 1.4-1 2.5-.5 1.2-.4.4-1.9-.6-2.7 0 .2 0 .4-1.2.7.4.2 2.6.5 1.6 1-1.5.2-1.2-.2-2-.4.6.5-2 .9-1.6 1.7l1.4-.3c0 .1-.5.3-.1.5ZM272.7 2h.5c-.6 0-1-.3-1.7-.6-.8.2-1 .4-1 .6h2.3-.1ZM275.3 2c-.3.4-1.5.7-.8 1.2 1.5 0 1-.4 1.9-.7-2.3.2.6-.3-1-.5l1.2-.2-1.2-.2c.2.1.2.1 0 .1v.2c-.7 0-.2-.1 0-.2l-2.2.3 2.1-.1ZM286.9 4.3V4c-.2.1-.3.1 0 .2Z"/>
  <path fill="#202020" d="M286 4s.2-.3.8-.3c.4.2 0 .3 0 .5.3-.2 1.1-.4.1-.7l-.2.1c-.9-.2-2-.8-2-.8.4.4.6.8 1.2 1.2ZM280.6 3l-2 .3 1 .5v-.3c1.1.1.9-.2 1-.4ZM270.1 1.7l.3-.5-1.1.8.8-.3ZM267.7 1.9v-.5l-.6.3.6.2ZM129 18.4l-.5.2.5-.2ZM133 17.8v-.2c-.1.1-.2.2 0 .2ZM206.8 4.5c-.8-.4-1.8-1-1.7-.4l.3.4h1.4ZM165.5 11l.3.2.5-.5-.8.4ZM165.2 13.3l-1.1-.3 1.1.3ZM107.3 22.5l-.5.6c1-.2.5-.4.5-.6ZM242.3 2.8a9 9 0 0 0-1.8-.2c.9.3 1.6.7 1.8.2ZM129.8 12.8c-.4.1-.5.2-.5.3.4 0 .6-.2.5-.3ZM238.5 2.7l.4.1a7 7 0 0 1 1.6-.2c-.6-.2-1.3-.3-2 0ZM29.7 40.7h-.2c0 .1.1 0 .2 0ZM6 44.3l1-.5c-.3 0-.5.2-1 .5ZM257.7 1.9s.5 0 0 0ZM260.3 3.8l-.2.3.2-.3ZM233.4 6.1c.1.1 0 .1 0 0ZM258.5 2.1ZM258.4 1.9h.4s0-.1-.4 0ZM257 2h.8H257ZM70.6 28.2c-.5.3-.3.2 0 0ZM193.6 10.8ZM191.7 11.4c.8-.7 1.2-.7 1.8-.6l-.7-1.4-1 2Z"/>
  <path fill="#202020" d="m119.5 20 1.3.2c-1.4 1-2.6 1-1.3 1.4 0-1.6 5-1 5-2.6l1 .3-.6.1c1.8.5 1-1.3 3.3-1.4.7 0 1.3.1.8.4l1.6-.6c.5 0 .4.2 0 .3l2.5-.5c.3-.3 1-.8 1.5-1 .6.1-.3.2-.2.3l1.4-.5c.6.3-.5.9-1.5 1 1.6 1.4 1.1-.7 4.1 0l-1.3.3c1 .8 2 .3 3.6.7-.4-.3-3.2-1-1.7-1.6.4 0 1 0 1.8-.4 0 .6.9.3 1.9.2v.7c1-.3 1-.7 1.5-1.1 1.3-.1 1.6.4 2 .9 2-.2-1.5-.8.8-1.2 1.6 0 2.7-.4 4.6-1 1.2 0-.1.4.3.6l1-.8c.2 0 .2.2.1.3.9-.3 0-.7 1.3-1.1.3-.9 3 1 4.5-.2.4.2-.2.5 0 .7 2.2-.8 1.9-.6 3.7-1.6l1.6.3c-1.2-.5.2-1.3 1.5-2l-1.1-.5 2-.6c.3 0 .1.4-.2.7l.4-.2c.8.2.4.7 0 1.1l-.9-.3c-.4.5-.9 1-.7 1.5l.6-.3c0 .1-.2.2 0 .3l.5-.3.6.7V13l2.9.2c1.8-1 3.4-2.4 6.5-3-.7.6 0 1 0 1.7-1-.7-2.4.6-4 .6.8 0 .6.3.4.5l2.8-1c0 .6.7.4 1.5.6-.7-1.1 2-1 3.2-1.4 0 .3-.2.8-1.6.8 1.7.8 2-1.6 3.5-1-.3.1-.5 0-.6.3.8-.5 2.8-.4 2.3 0h-.3c2.3 0 7-.6 7.3-1.5l-.3 1.4 3.9-3.7c-.3 1 1.2 2.9-.7 3.5.6 0 1.3.2 2.4-.2-.3-.1-1-1.2-.5-1.3 1.5.8 1 .4 2.8 1.1-.5-.1 0-1.5.9-1.5-.1.2.2 1.3-.2 1.4l2.2-1.4c-.6.2 0 1 .5 1.4-.3-.2 1.9-.1 2.5-.3l-1-.2c2.5 0 2.4-2 4.9-2.2-.3.3-.7 1.8.6 1.9.5-.7 2.4-3.5 4.5-4.1l.5.4 1.7-.6c-1 1-3.9 3.4-5.4 4.4 1 .2.3.4 1.7.3.5.3-.8.6-1.2.6h3.3c-.2-.7 2.5-.9 2.3-1.5l-3.5 1c-.2-.8 2-2.4 4.3-2.4.6.3-.4 1.4-.3 1.7.2-.3 2.1-.6 2.4-.5l-1 .5c1.3.3 2-1.1 3.6-.5.6 0 1.7 1 1.8.5-1-.9-1.3-3.7-.7-4.4.2 0 2.8.7 3.5 1.1.9.7-1.3 1.8-.5 2.4 0-.2.5-.5.7-.6.6.1-.2.7 1 .5.2-.8 2.5 0 .6-.7 1.2-.3 1.2.1 2.7 0-.5-.5 1.1-1.8 2.3-2.1 0 .2.2.4.4.6 2.4 0 3.8.2 6 .1.3.2 1.4.4 1 .8.3-.2.6-.5 1.3-.5 1.4.6-1.6.2-.5 1 0-.5 1.8-.8 2.8-1-.4-.8-2.3-.1-3.3.2 0-1 1.6-2.1 4-2.7 1.9-.3.9.7 1.2.5 3.6 0 3-1.9 6-1.2 1.2.6 0 1.2.3 1.7-1.5.3-2.4-.3-3.4-.3l1.3.3c-.5.2-1.5.4-2 .2 1 .5 6 0 8.7.4.5-.3 1.4-.5 1-.8l-1 .1c-.7-.4 1.7-.7.6-1 1.2-.3 2.5-1 4.1-.7l.3.7c0-.2-1-.4-1.5-.1.7-.4 2.5.9 3.3 0l-1.2-.6c1.2-.4 2.6-1.2 4-1-.6-.7-.3.1-1.3-.7.9 1-3.8 0-2.3 1.1-1-1-1.9-.3-3.3-1.1 0 .2.5.4-.7.3l-.3.3c.3 0 .6.2.7.3-.6.6-2.6.6-3.2 1-.8-.2.3-.3-.1-.6l-1 .5c-.1-.6-2-.9-.3-1.2h-1.5c-1-.3-2.2-.3-3 0-.7-.2-1.8.6-1.1.1l-2.5.4c-2.4 0-4.9 1-7.7.1-.8.2-1.6.4-3 .3l-.2-.4c-1 .2-3.2-.4-3.6.1-1.2-1.1-5 0-6.9-.1v.6a23 23 0 0 0-4 .6l.1.5c-1.3.5-3.4-.2-5.6 0 .2-.2.7-.2 1.1 0-2.6-1.1-5.3 1-7.6.4a2 2 0 0 1-1.4 0h.1-.2l-.8-.2.6.2-1.7.3-.3-.5h-.2c-.6-.2-.5.3 0 .7a4 4 0 0 0-1 .4c-.5-.9-1.6.4-2.4-.5-.4.5-3.3.6-3.5 1.7 0-.2-.3-.2 0-.3-.6 0-1.4 0-2 .3l-.4-.7-1.5 1c-1-.3-1.4-.6-.5-1.2-2.3 1-1.9.5-3.8 1.5V7c-.6 0-1.7.8-2.2.4-1.6-.7-7.8.6-11.9.1 1 1.3-2-.4-2 .7-.3-.3-.9-.5-.2-.8-2 .5-3.2-.3-4.5.8-.3-.3.4-.5.1-.7-.1.1-.6.4-.8.2-.2-.2.2-.3.6-.5-2.1.3-2.2 1.3-2.3 2.3-1.1-.4-1.7-.2-2.4.5-.4-.3-1-.6.3-.8-.8 0-4.6 0-4.6.8-.2-.2-1 0-1.2.2-1.6 0-1.8 0-3.4.3h.5c-.6 1-1.4.4-2.6.7V11c-3-.3-1.3.4-4.3 0l.2.6c-.1 1.3-2.7-.4-4.4.3l.7.2c-.9.6-2.8-1.3-3.8-1.3l.6-.3c-2.6-.4-.2.8-2 1.2-.4-.4.3-1.1-1-1-.6-.3-3.4 1.7-5.2 1.2.4.3.8.5 0 .9-1.3.3-3.7-.7-4.7.5-.2 0-.3-.2-.3-.2-1 .4-3.2.9-3.7 1.5-1.2-1.8-6 1.8-6.3 0l-3 .6v-.2c-2 .3-2.5.8-3.2 1.4-.4 0-.1-.3-.1-.4-3 .1-3.2.3-5.4 1.6l-.4-.6c-.6.5-4.3-.2-7 1l.3-.3c-3 1.3-7.8-.1-8.6 2.2l-2 1c2.8-.4-.1 1 1 1-1 .4-2.8 0-1.5-.4h.2c.2-1.1-3.4.3-3.5-.4-5.2 1-10.5 1.7-15.4 2.8l.8.7-1.7.3c-.5 0-.8-.5.4-.7-.7-.4-2 .8-1.9 1-2.5.2.7-1.2 0-1l-1 .3h.2c-.7.5-.7.9-2.2 1.2-1 0-.6-.4-1-.3h-.5l-2.2.6 1 .4c-.8.6-2 .5-.8 1-1.7-.8-8 1.6-9 1.5-1.2.8-2.5 1.2-4.2 1.5.5 0 .9.7-.5 1 0-1.6-2.7.1-4.2-.7 1.2.5-3.9 1.4-2 2-1.2.2-.2-.6-1.2-.7-2.6 1.4-6.2 1.4-9.6 2.6 0 .2.7.3 0 .8l-2-.4c-.7.3-.3 1.3-1.7 1 .2.1.5.3.1.5-7 1.2-13.2 5.3-20.5 6.6 1 0 .5.3-.1.6.4 0 .2.5.4.7l-3 .6c-.2 1-3 1.6-2.8 2.4l.8-.6c-.7 1.4 2.4 1 2.8 2 .8-1.5 3.9-.3 5.3-2.5.5 0-.2.5.1.6.3-.6 1-1 2.2-1.3l-.1.1c3.2-1.5 4.8-1.6 8.7-2.6l-.5-.5c.9-.2 1.1 0 1.6 0 .6-1.2-2.4.7-1.8-.5 1.4.7 5.8-2 7-1 1.2-.4-.6-.5.7-.9l.4.2.2-.5c.8-.2 1.4.1 1.5.4l-.7.3c1.2 0 3-1 3.4-1l-1.3.1c3.4-1.3 7.8-2.1 11-3.8l-.3-.2c2.5-1.2 2.2-.3 5-1.4l-.1.1a5 5 0 0 1 2-1c-.6.6 1.5.3.7.9 2.7-1.3 1.3-.8 2.9-2.2l.5.3c.6-.6.6-.8 2-1.3-1.1.7 1 .5-.1 1.3 3.2.1 4.2-2.1 6-1.1 1-1.6-2.8 0-2.1-.4-.8-.3.9-1.2 1.9-1.4 1-.2 2 1.1 4.4.5l-.5.2c1 0 1.7-.9 3-.6.4-.9 1.4-.3 1.4-1.3l-2.2.7c1.2-.5 2.1-1.8 4.3-1.8a4 4 0 0 1-1 .9c.6.1 1-.5 1.8-.3 0 1-2.7.8-3.9 1.8.8.2 2.4-1.3 2-.1.7-1.5 2.4-.4 3.9-1.8v.6c.2-.1.7-.5 1.2-.6l-.7.9c1.2-1 2.7 0 3.9-.7-2.7.7-.8-.5-2-.6 3.1-1.5 2.2 1 5.9-.2-.5.2-2 .2-1.3-.3a7 7 0 0 1 2.2.1c2.5-.6-.5-.4.5-1 1 .5 1.2-.5 2.2-1l.1.6c3-.2.5-1.3 3.2-1.4l-1 1 1.3-.5v.7c1.3-.7 1.7-.7 3.2-.8-.4-.3 0-1 1.2-1.3 1 .2-.4.6 1.4.2-.3.4-.7 1-1.6.6l-.3.6c1 .2 2.3-.4 3-.5a2 2 0 0 1-.8 0l2.4-1.3c.5.1.2.4-.1.6.5-.2.8-.5 1.5-.7 0 .5 0 1-1 1.4l2.4-1c.2.2 1.3.3 1 .6 1.5 0 3.2-1.5 5.1-1.5l.6-.3c1.7-.2 3.3 0 5.2-.9l1.3.6c1.6-.4-1.7-.7.9-1.5 1.8-.6.8.6 1.5.7.8-.6 2.3-1.7 4.1-1.3-.5.3-1 .2-1.5.4Zm19.4-3.3c-.3.2-1 .7-1.4.4.4-.8.8-.5 1.4-.4Zm29.7-4.8c-.3.2-.8.1-1.3 0h1.3Zm83.3-9.3c-.9-.2-.6-.1 0 0Zm1.8.2c.2-.1.2-.2.1-.3 0 .2-.5.2-1 .2.2.1.4.2 1 0Zm-189.4 23h.4c-.8.3-.6.1-.4 0Z"/>
  <path fill="#202020" d="M165.3 13a.5.5 0 0 1-.2-.3c-.2.1-.2.2.2.3ZM107.4 22.3v.2-.2ZM226.4 8.7c-.3 0-.5-.2-.7-.3 0 .2.2.3.7.3ZM263.1 1.5l-1.1.2 1 .1c0-.1-.2-.3.1-.3ZM273 4.8l.6-.1v-.3c-.8 0-1.2.3-.5.4ZM264.2 3.3c.1.5.8.3 1.6.2.1-.6-.7-.4-1.6-.2ZM266 3.5h.8c0-.3-.3 0-.8 0ZM256 2.4c.4 0 .2-.7.4-.5.4-.6-2.5.9-.4.5ZM265 5l-.4-.7-.4.5.7.1ZM258.6 4.6l1.3.2c0-.1.1-.2.3-.2-.8 0-1.6-.1-1.6 0Z"/>
  <path fill="#202020" d="M260.2 4.6c.4 0 .8 0 1-.2-.2 0-.7 0-1 .2ZM263.2 5.1h-.4l-.9-.1 1.3.1ZM245 5l-1.5.2c-.1.2.3.4.8.2.3-.1.8-.2.6-.4ZM249.2 6.5c-.4-.1-.4-.3-.6-.4v.7l.6-.3ZM245.1 6.8c0 .2-2 .6-.2.5.1-.2 1.5-.4.2-.5ZM224.2 6.8h.3V5.6l-.3 1.2ZM206 10.8c1.6.1.3-.8 1.8-.6.4-.3-1.2-.2-.8-.4-1 .3-1.5.2-1 1ZM207 9.8ZM2.2 45.5l-1 .3h.7l.3-.3ZM.8 47.3l-.6-.5-.2 1c.2-.2.6-.5.8-.5ZM142 17.9v-.2c-.1-.2-.3-.2-.8-.1l.8.3ZM127.8 19.3h.3l-.6-.6.3.6ZM116 22c.6 0 1.1-.3 1.6-.3-1 .3-1.8-.5-1.5.3Z"/>
</svg>