<svg width="121" height="6" viewBox="0 0 121 6" fill="none" xmlns="http://www.w3.org/2000/svg">
<path d="M26.5002 1.81228C40.032 1.98169 49.4976 2.02012 63.0306 2.02012C69.915 2.02012 76.7546 2.71482 83.6143 2.71482C88.0255 2.71482 92.3631 2.89948 96.7621 3.22941C100.314 3.4958 103.716 3.89059 107.208 2.95925C108.598 2.5888 109.797 2.30389 111.222 2.20023C112.773 2.0874 114.299 2.02012 115.853 2.02012C116.27 2.02012 117.255 1.80553 117.59 1.9172C118.172 2.11098 118.826 2.00379 119.43 2.02012C119.48 2.02147 120.182 2.13785 119.944 2.20023C118.477 2.58635 116.87 2.75369 115.377 3.0493C107.79 4.5525 100.312 3.64108 92.684 3.64108C88.3917 3.64108 84.182 4.56735 79.8706 4.56735C77.3042 4.56735 74.7923 4.53547 72.2418 4.23286C70.9114 4.07502 69.4013 3.93892 68.0736 4.15568C65.5543 4.56699 63.1694 4.73101 60.612 4.33578C55.0293 3.47299 49.4591 2.71482 43.7977 2.71482C41.7445 2.71482 39.4389 3.00973 37.4039 2.66336C36.1501 2.44994 34.9601 2.28515 33.686 2.23882C26.2134 1.96709 18.3853 0.84808 10.8767 1.60845C8.97947 1.80057 7.13584 2.59238 5.31913 3.22941C3.85709 3.74207 2.70245 4.03577 1.20239 4.33578" stroke="#1E1E1E" stroke-width="1.5" stroke-linecap="round"/>
</svg>
