<svg xmlns="http://www.w3.org/2000/svg" width="134" height="8" fill="none">
	<g fill="#202020" clip-path="url(#a)">
		<path d="M132.86 1.43c.2.04.13-.38.16-.46-.33.09-.15.57-.16.46ZM129.62 2.38l.06-.17-.48.42.42-.25ZM126.59 2.37c.29.71 1.1-.11 1.64.14l.09.16.24-.57c-.66.09-1.51.47-1.97.27ZM124.97.83c.1.28-.35.24.38.09l-.07-.07c-.07 0-.16 0-.31-.02ZM125.28.84c-.21-.23.32-.02 0 0ZM123.81 1l.42-.25c-.09-.16-.46-.2-.32-.32-.43.14-.34.3-.1.57ZM123.41 1.52l.22-.1c-.04-.07-.1-.09-.22.1ZM124.09 1.2l-.46.22c.06.12.07.35.21-.08-.04.21.05 0 .25-.14ZM124.35 1.31c.24.16.54.25.12.5.8-.1.69-.6-.12-.5ZM126.43 3.11l.32.21.27-.24c-.14.12-.61-.19-.59.03ZM121.19.63c-.03.15.14.4.17.6l.31-.17c-.16-.1-.46-.2-.48-.43ZM121.36 1.23l-.46.26c.42.03.49-.09.46-.26ZM123.33 2.32l.77-.55-.91.55h.14ZM119.41.61l.27-.35-.47.53.2-.18ZM118.24.67c.2-.29-.27-.49-.06-.67-.32.05-.59.3-.84.53.26-.13.54-.09.9.15V.67ZM116.92.85c.13-.07.27-.19.41-.33a1.1 1.1 0 0 0-.41.33ZM120.1 1.42c-.04-.09-.1-.33-.37-.43l.18.43h.19Z"/>
		<path d="m119.93 1.42-.39-.04a4 4 0 0 1 .4.04h-.01ZM120.15 1.42h-.05c.02.04.03.06.05 0ZM122.12 1.93c-.27.24-.84.49-.29.86.2-.29-.12-.5.29-.86ZM120.38 1.95l.49.1c0-.11-.1-.28.04-.4l-.53.3ZM120.14 2.09l.24-.14-.19-.03-.05.17ZM117.77 1.25c-.21.19-.45.2-.71.23.28.08.57.13.85.13.04-.13.16-.37-.14-.36ZM118.82 1.37l-.05.02c.03.04.05.05.05-.02ZM114.46 1.48l.04.08v-.07h-.05l.01-.01Z"/>
		<path d="M117.96 1.69c.21.08.34-.02.46-.15a2.1 2.1 0 0 1-.51.07c-.02.06-.02.1.05.08ZM116.2 1.05c.11.09.24.17.37.24-.11-.14-.33-.35-.37-.24ZM118.7 1.28l.03-.02c-.07-.09-.06-.05-.03.02Z"/>
		<path d="M118.7 1.28c-.11.06-.2.17-.28.26.13-.03.25-.08.35-.14-.03-.03-.05-.08-.07-.12ZM113.68 4.22c.04-.4.6-.76 1.08-.34.47-.3.16-1.6-.25-2.33-.01.17-.01.33-.5.57.17.22 1.08.51.67.86-.65.2-.53-.14-.84-.35.27.49-.82.72-.68 1.44l.57-.26c.01.11-.19.29-.04.4l-.01.01ZM115.44 1.6l.2-.05c-.23-.07-.39-.23-.69-.54-.33.19-.4.34-.43.47l.99.06-.07.06ZM116.54 1.55c-.16.43-.64.61-.34 1.08.59-.03.41-.36.77-.55-.95.11.27-.24-.41-.48.19-.07.35-.1.51-.11a2.65 2.65 0 0 1-.49-.2l.02.03c.04.05.05.09 0 .06h-.02c0 .06-.02.11-.04.16-.28-.09-.04-.11.04-.16l.01-.06-.95.24c.2.06.45.05.9 0v-.01ZM121.31 3.71l-.03-.1c-.06.05-.08.09.03.1ZM120.92 3.45c.07-.06.13-.23.35-.19.2.13 0 .21 0 .35.14-.11.47-.31.05-.52l-.07.06c-.38-.15-.88-.69-.81-.75.11.39.21.66.47 1.04l.01.01ZM118.7 2.61l-.79.21.4.37-.02-.22c.45.09.35-.19.41-.36ZM114.37 1.27l.11-.46-.46.64.35-.18ZM113.34 1.32l.04-.4-.27.24.23.16ZM55.19 6.2l-.23.11a.61.61 0 0 0 .23-.11ZM56.88 6.23l.04-.19c-.08.11-.11.19-.04.19ZM88.03 1.35c-.34-.37-.72-.94-.68-.5l.1.43a.64.64 0 0 1 .57.06l.01.01ZM70.7 3.93l.1.13.23-.41-.33.28ZM70.46 5.73l-.45-.28c.1.1.24.19.45.28ZM45.98 6.65l-.27.44c.43 0 .24-.22.27-.44ZM102.79 1.47a1.8 1.8 0 0 0-.73-.26c.35.25.64.62.73.26ZM55.86 1.59c-.14.08-.2.17-.2.26.15-.07.23-.16.2-.26ZM101.21 1.21l.15.1c.21-.07.43-.13.69-.1-.26-.19-.56-.3-.85 0h.01ZM12.56 6.28l-.08-.05c0 .06.03.06.08.05ZM2.83 1.89c.1-.03.25-.03.4-.03-.07-.03-.19-.03-.4.03ZM109.2 1.13c.03-.05.22-.03 0 0ZM110.26 2.85s-.08.11-.09.21c.02-.1.05-.17.09-.21ZM99.03 3.91h-.02c.06.09.05.07.02 0ZM109.53 1.33a1.2 1.2 0 0 0-.28-.13c.05.03.13.08.28.13ZM109.48 1.12l.19.04c.03-.07 0-.12-.19-.04ZM108.89 1.15c.12 0 .24.01.35.05-.04-.03-.06-.05-.05-.07l-.3.02ZM30.47 5.12l-.05-.04c-.22.18-.12.15.05.04ZM82.34 5.85l.02-.02-.03-.02v.04h.01Z"/>
		<path d="M81.56 6.18c.33-.54.52-.47.78-.36l-.26-1.25-.52 1.61Z"/>
		<path d="m51.15 6.32.55.39c-.67.64-1.15.42-.63.97.08-1.36 2.14-.14 2.22-1.49l.36.29c-.1-.01-.12.07-.22.05.71.65.53-.98 1.44-.79.32.1.54.3.32.46l.71-.34c.21.03.16.26-.05.24l1.08-.11v.04c.15-.21.49-.54.67-.68.27.19-.14.14-.07.31l.6-.33c.24.35-.25.69-.66.64.56 1.36.5-.34 1.7.45l-.56.17c.36.77.8.49 1.44.97-.15-.25-1.28-1.21-.63-1.55.18.1.42.15.77-.12 0 .48.34.36.77.34l-.03.64c.46-.18.43-.51.7-.8.51.06.62.56.74.98.82.1-.57-.79.41-.91.69.24 1.17-.02 1.99-.4.48.22-.08.39.09.57l.43-.51c.1.01.07.17.05.25.36-.2.03-.64.59-.81.15-.7 1.16 1.03 1.85.23.17.18-.08.39-.03.64.96-.52.82-.38 1.61-1.09l.67.42c-.49-.48.14-1.05.69-1.52-.17-.23-.32-.44-.42-.53l.88-.34c.11.11.02.32-.13.59l.16-.15c.31.24.15.61-.07.96l-.32-.39c-.22.39-.42.82-.38 1.19a.59.59 0 0 1 .29-.17c-.06.11-.09.2-.07.26.03.07.12-.07.27-.24l.2.71.05-.28 1.15.45c.82-.72 1.54-1.77 2.84-2.07-.32.52-.07.85-.09 1.47-.36-.66-1.01.28-1.69.14.35.07.28.36.19.47l1.21-.6c-.03.51.26.38.57.59-.24-1 .9-.67 1.39-.97.03.34-.09.68-.69.6.66.75.85-1.18 1.5-.53-.15 0-.23-.04-.28.13.34-.3 1.18-.06.98.23h-.15c.97.13 2.95.02 3.1-.83 0 .11-.13 1.03-.19 1.2l1.73-2.86c-.15.73.43 2.47-.37 2.88.23.1.52.23 1-.03-.16-.1-.39-1.06-.18-1.12.59.81.41.44 1.14 1.13-.24-.16.03-1.3.4-1.27-.06.17.03 1.13-.11 1.25l.93-1.12c-.23.2-.04.95.17 1.27-.1-.22.8.02 1.05-.09l-.39-.26c1.05.17 1.04-1.58 2.08-1.52-.13.23-.31 1.43.22 1.57.24-.58 1.08-2.77 2-3.21l.18.33.71-.37c-.44.87-1.68 2.69-2.35 3.4.39.26.11.39.7.36.21.31-.32.47-.49.49l1.37.2c-.06-.67 1.05-.67 1-1.23l-1.49.7c-.06-.67.86-1.91 1.83-1.79.25.27-.19 1.2-.17 1.42.13-.23.92-.44 1.01-.28l-.41.36c.54.25.88-.89 1.53-.25.22.04.67.87.71.47a7.81 7.81 0 0 1-.19-3.72c.08.05 1.18.73 1.43 1.11.37.6-.55 1.43-.24 1.95.01-.18.22-.41.3-.48.24.16-.1.57.41.49.09-.68 1.04.06.24-.58.5-.19.53.14 1.12.11-.19-.44.53-1.5 1.03-1.69-.03.17.08.4.14.5 1.03.06 1.58.37 2.53.38.09.17.55.37.35.66.14-.12.26-.35.56-.37.57.59-.66.09-.22.8.04-.4.76-.55 1.18-.79-.13-.61-.97-.12-1.39.13 0-.84.73-1.73 1.73-2.12.79-.21.34.55.48.43 1.49.15 1.27-1.47 2.51-.86.49.54.02 1.07.13 1.46-.65.2-.99-.34-1.43-.32l.54.25c-.21.18-.64.31-.87.16.41.48 2.52.09 3.67.54.2-.18.56-.37.39-.58l-.36.07c-.33-.43.69-.6.22-.8.49-.3 1.04-.78 1.72-.54l.13.61c-.01-.18-.45-.37-.64-.18.29-.27 1.05.83 1.37.03l-.48-.43c.49-.31 1.1-.96 1.71-.76-.28-.61-.14.07-.57-.64.37.88-1.56-.04-.96.89-.44-.82-.77-.35-1.35-1.05.02.2.21.39-.31.29-.02.06-.08.13-.11.18-.02 0-.02 0-.03-.02l.03.02c-.02.03-.02.04.01 0a.7.7 0 0 1 .26.31c-.25.46-1.07.45-1.34.69-.3-.1.13-.23-.04-.45l-.41.36c-.04-.45-.81-.75-.09-1.01l-.64-.02c-.38-.25-.9-.35-1.22-.16-.3-.1-.77.5-.5.15l-1.01.28v-.11c-1.01-.06-2.06.74-3.2-.07-.34.11-.68.25-1.24.12l-.11-.39c-.43.14-1.29-.39-1.48.02-.46-1.05-2.09-.23-2.85-.42l-.03.51a4.58 4.58 0 0 0-1.67.32l.04.45c-.56.37-1.43-.32-2.32-.27.06-.17.28-.13.44-.02-1.05-1.01-2.22.74-3.18 0-.24.16-.41.11-.58 0 .02 0 .04 0 .06-.02h-.1c-.11-.08-.21-.17-.33-.24.1.11.2.2.28.24-.18 0-.46.06-.74.18l-.12-.48-.06.01c-.27-.18-.22.23-.07.59-.14.08-.26.17-.36.29-.22-.78-.72.26-1.01-.57-.18.4-1.37.3-1.52 1.15 0-.11-.09-.16.06-.17-.3-.1-.61-.19-.88.05l-.13-.61-.67.82c-.4-.37-.57-.59-.17-1.06-.97.72-.79.27-1.61.99l.04-.4c-.29.01-.77.54-.94.22-.66-.75-3.26-.11-4.95-.81.33 1.17-.79-.52-.85.38-.1-.28-.33-.43-.06-.67-.86.27-1.3-.44-1.89.32-.1-.28.18-.4.1-.57-.07.06-.27.24-.36.08-.09-.16.13-.23.26-.35-.88.05-.97.9-1.04 1.69-.45-.38-.67-.32-.99.2-.16-.26-.41-.53.13-.63-.31-.04-1.88-.38-1.91.26-.1-.16-.43-.05-.51.03-.69-.04-.75-.1-1.43-.04l.19.1c-.27.77-.56.17-1.11.26l.02-.08c-1.25-.56-.54.27-1.78-.37l.07.48c-.12 1.03-1.1-.61-1.81-.21l.26.27c-.39.35-1.1-1.4-1.49-1.53-.09-.09.14-.14.26-.21-1.03-.61-.13.63-.9.77-.14-.34.18-.86-.33-.92-.26-.27-1.5 1.1-2.21.45.16.26.31.52-.05.72-.55.09-1.48-.99-1.97-.17-.07-.07-.1-.14-.1-.2-.42.21-1.36.35-1.61.8-.39-1.66-2.6.8-2.59-.72l-1.29.08.03-.16c-.82-.1-1.11.26-1.4.63-.19-.1-.05-.25-.04-.33-1.2-.31-1.32-.24-2.33.52l-.1-.5c-.27.29-1.74-.78-2.92-.2a.35.35 0 0 1 .13-.22c-1.33.58-3.17-1.38-3.66.43l-.88.44c1.13.14-.17.78.3 1.08-.45.11-1.15-.55-.6-.64l.09.09c.2-.94-1.41-.33-1.38-.97-2.23.05-4.4-.48-6.49-.52l.24.73-.73-.04c-.19-.17-.26-.57.26-.54-.27-.41-.87.35-.89.51-1.02-.3.4-.85.09-.87l-.42.05.1.09c-.34.3-.37.62-1 .58-.39-.15-.2-.45-.36-.48 0-.05-.05-.08-.24-.02l-.92-.06.37.58c-.41.28-.86-.03-.44.62-.62-1.01-3.42-.36-3.8-.68-.57.42-1.13.41-1.83.36.17.12.28.77-.32.69.22-1.34-1.1-.58-1.58-1.55.43.64-1.71.16-1.03 1.06-.5-.11-.03-.5-.41-.82-1.19.52-2.63-.34-4.1-.16-.02.18.22.44-.09.71l-.78-.88c-.29.09-.27 1.02-.8.4.08.15.19.37 0 .43-2.89-.86-5.9.7-8.83-.91.4.34.13.37-.17.39.2.08 0 .43.03.67l-1.23-.66c-.22.66-1.32.04-1.44.68l.39-.11c-.52.75.72 1.66.65 2.62.58-.85 1.53 1.26 2.48.04.21.2-.18.31-.07.53.24-.41.53-.5 1.07-.31l-.06.1c1.51-.1 2.16.31 3.86.58l-.13-.47c.37.06.44.21.61.33.42-.72-1.03-.04-.64-.83.48.96 2.58.02 2.9 1.11.56 0-.16-.55.4-.54l.15.3.14-.38c.37.06.55.43.57.68-.09-.03-.25.07-.35.09.48.35 1.35-.12 1.51 0l-.54-.18c1.53-.28 3.41.11 4.89-.49l-.11-.22c1.13-.41.91.25 2.15.06l-.05.05c.25-.22.58-.33.92-.31-.31.26.59.51.18.8 1.23-.44.61-.35 1.42-1.18l.19.37c.28-.34.3-.51.92-.61-.51.32.4.57-.17.99 1.3.81 1.93-.82 2.53.37.6-1.03-1.13-.57-.79-.79-.28-.34.49-.77.9-.66.42.02.71 1.31 1.75 1.29-.1 0-.11.07-.22.07.39.26.77-.35 1.25.07.27-.62.62.04.7-.76l-.96.18c.54-.21 1.06-1.13 1.95-.68-.07.16-.34.37-.52.49.26.23.5-.15.78.09-.08.79-1.17.17-1.75.78.28.33 1.1-.57.81.28.42-1.09 1.03.14 1.74-.69l-.05.47c.11-.07.34-.3.55-.29l-.37.62c.57-.52 1.11.46 1.66.17-1.15.01-.26-.57-.75-.92 1.42-.63.82 1.24 2.41 1.02-.22.07-.81-.29-.47-.51.3.1.7.28.89.53 1.05-.1-.16-.49.29-.78.36.58.52-.24.98-.42v.48c1.2.31.32-1.01 1.4-.63l-.46.67.56-.17-.12.55c.61-.41.8-.3 1.41-.15-.14-.34.08-.88.61-.89.36.29-.2.46.55.39-.17.3-.36.68-.69.24-.03.16-.17.3-.2.46.39.33.98.08 1.26.07-.11-.02-.23-.04-.3-.11l1.09-.67c.17.18.04.33-.1.47.22-.05.37-.27.7-.32-.08.39-.06.8-.53.98l1.04-.43c.07.17.53.47.4.61.58.23 1.42-.76 2.18-.46.04-.08.12-.15.28-.2.72.09 1.36.57 2.21.03l.48.7c.67-.16-.65-.89.46-1.15.79-.22.29.6.57.8.39-.35 1.07-1.08 1.8-.5-.24.13-.43.03-.65.08l-.04-.07Zm8.24-.31c-.16.1-.48.41-.59.13.18-.55.32-.29.59-.13Zm12.52-1.15c-.12.16-.3.08-.51-.1a.63.63 0 0 1 .51.1Zm34.89-3.34-.02.02c-.36-.19-.23-.11.02-.02Zm.74.21c.07-.07.07-.13.04-.2-.05.12-.22.13-.41.1.05.13.15.21.37.11v-.01Zm-79.41.15.14.13c-.33.14-.23.01-.14-.13Z"/>
		<path d="M70.49 5.52a.6.6 0 0 1-.07-.26c-.06.08-.06.17.07.26ZM46.03 6.57H46l-.03.09.05-.08.01-.01ZM96.08 5.81a.61.61 0 0 1-.29-.25c0 .12.06.22.29.25ZM111.46.91l-.47.13c.23-.02.31.08.43.16-.01-.11-.1-.28.05-.28l-.01-.01ZM115.57 3.9c.07-.06.15 0 .22-.07l-.02-.22c-.29.01-.5.2-.2.29ZM111.9 2.52c.04.41.33.27.67.19h-.06c.1-.57-.26-.38-.61-.19ZM112.64 2.7c.1-.02.21-.03.31-.01.04-.23-.12-.05-.31.01ZM108.48 1.46c.16.1.1-.52.19-.35.18-.52-1.05.62-.19.35ZM112.16 3.85l-.11-.5-.19.41.3.09ZM109.55 3.48l.53.14c0-.08.06-.13.14-.17-.33-.02-.68-.12-.67.03ZM110.22 3.45c.17 0 .33 0 .43-.08-.09 0-.29.02-.43.08ZM111.44 4l-.16-.1-.37-.04.53.14ZM103.85 3.38l-.58.14c-.06.17.1.28.31.21.14-.12.35-.19.26-.35h.01ZM105.6 4.76c-.16-.1-.17-.22-.26-.38l-.02.62.27-.24h.01ZM103.91 4.9c-.06.17-.84.49-.11.46.06-.17.64-.31.11-.46ZM95.19 4.11l.15-.01-.02-1.02-.13 1.03ZM87.51 6.54c.7.24.16-.63.78-.32.16-.24-.51-.25-.34-.46-.41.25-.63.11-.44.78ZM87.95 5.76l.21-.15a.59.59 0 0 0-.21.15ZM1.22 1.34l-.44-.21.28.34.16-.13ZM.37 2.1l-.1-.65-.27.59c.1-.03.29-.08.37.06ZM60.61 7.32l.03-.16c-.07-.17-.17-.18-.38-.21l.34.36.01.01ZM54.63 6.83l.11.02-.2-.59.09.57ZM49.61 7.58c.2.02.45-.11.65-.08-.45.11-.71-.65-.65.08Z"/>
	</g>
	<defs>
		<clipPath id="a">
			<path fill="#fff" d="M0 0h133.02v7.68H0z"/>
		</clipPath>
	</defs>
</svg>