<svg xmlns="http://www.w3.org/2000/svg" width="322" height="170" fill="none">
	<g fill="#202020" clip-path="url(#a)">
		<path d="M320.67.65c.53-.1.22-.53.27-.65-.84.35-.22.77-.27.65ZM312.45 4.08l.1-.24-1.13.83 1.03-.59ZM304.48 6.3c.98.61 2.85-.95 4.34-1.05l.3.12.45-.84c-1.7.58-3.8 1.65-5.09 1.77ZM299.74 5.71c.36.26-.84.54 1.01-.18-.1 0-.14-.02-.2-.03-.17.05-.4.12-.81.2v.01ZM300.56 5.5c-.62-.11.84-.25 0 0ZM296.75 6.8l1.01-.6c-.28-.13-1.27.11-.95-.13-1.09.48-.8.6-.07.74v-.02ZM295.88 7.7l.53-.28c-.12-.05-.28-.04-.53.29ZM297.55 6.8l-1.14.62c.2.08.3.35.53-.25-.02.27.14-.04.61-.35V6.8ZM298.27 6.73c.67 0 1.5-.12.48.5 2.08-.72 1.6-1.22-.48-.5ZM304.32 7.27h.9l.63-.46c-.33.24-1.67.22-1.53.46ZM289.75 8.37c-.02.19.5.36.66.56l.75-.43c-.45 0-1.27.12-1.4-.12v-.01Z"/>
		<path d="m290.41 8.92-1.13.65c1.1-.28 1.25-.48 1.13-.65ZM295.94 8.68l1.81-1.21-2.2 1.33.39-.12ZM285.1 9.72l.57-.61-1.04.97.47-.36ZM282.04 10.7c.4-.49-.87-.35-.4-.71-.82.3-1.44.81-2 1.26a4.95 4.95 0 0 1 2.4-.54ZM278.67 11.94c.32-.18.64-.43.97-.7-.33.19-.67.41-.97.7ZM287.18 10.1c-.12-.07-.38-.3-1.1-.2l.63.34.47-.13ZM286.72 10.25h-.03a26.3 26.3 0 0 0 .03 0ZM287.3 10.07l-.12.04c.06.03.1.04.12-.04ZM292.61 9.16c-.63.48-2.04 1.21-.48 1.21.42-.48-.47-.48.48-1.21ZM288.07 10.5l1.32-.26c-.05-.12-.34-.24-.03-.48l-1.3.74ZM287.48 10.85l.59-.35-.5.11-.09.24ZM281.01 11.74c-.49.38-1.1.58-1.78.82.77-.12 1.55-.3 2.27-.52.06-.18.3-.55-.49-.3ZM283.8 11.05l-.12.06c.08.03.16.02.12-.06ZM272.47 14.63l.14.06v-.1l-.14.04ZM281.66 12.1c.59-.07.87-.29 1.15-.54-.4.17-.83.34-1.3.48-.03.08-.03.13.15.06ZM276.84 12.75c.33 0 .67 0 1.04-.03-.33-.07-.98-.14-1.04.03ZM283.45 11.04l.08-.05c-.22-.04-.18 0-.08.05Z"/>
		<path d="M283.45 11.04c-.26.16-.45.35-.64.52.32-.15.62-.29.87-.45a.65.65 0 0 1-.23-.08v.01ZM271.39 18.41c-.05-.48 1.28-1.35 2.68-1.25 1.12-.72-.13-1.96-1.47-2.47.02.22.08.4-1.11 1.06.52.1 3-.29 2.05.45-1.61.76-1.42.27-2.32.28.88.35-1.89 1.49-1.27 2.2l1.4-.74c.06.12-.41.5.04.48ZM275.05 13.98l.5-.21c-.62.1-1.1.06-2-.06-.8.49-.93.72-.94.89l2.6-.74-.16.12ZM277.9 13.05c-.26.61-1.45 1.21-.52 1.51 1.53-.5.96-.73 1.8-1.22-2.45.86.64-.5-1.24-.23.47-.23.9-.39 1.3-.53a14.09 14.09 0 0 1-1.27.17c.13.02.16.06.03.06l-.05.02c0 .07-.02.15-.06.22-.75.1-.15-.1.06-.22 0-.02.02-.06 0-.08l-2.4 1.03c.55-.1 1.2-.31 2.36-.72v-.01ZM291.12 11.82c-.1-.02-.1-.06-.11-.1-.14.12-.2.18.1.1Z"/>
		<path d="M290 11.81c.16-.12.26-.36.87-.48.55 0 .07.24.14.4.31-.24 1.13-.72-.05-.64l-.15.12c-1.06.12-2.53-.12-2.37-.24.42.36.78.6 1.56.85ZM283.92 12.57l-2 .86 1.19.1-.13-.23c1.2-.25.86-.5.94-.73ZM272.16 14.46l.11-.6-.96 1.1.85-.5ZM269.49 15.35l-.04-.48-.63.5.67-.02ZM125.44 80.73l-.49.42c.24-.18.4-.3.5-.42ZM129.48 78.58v-.26c-.13.22-.16.34 0 .26ZM204.22 38.06c-1.03-.08-2.25-.35-1.95.11l.46.38a3.74 3.74 0 0 1 1.5-.49ZM161.88 59.37l.32.03.35-.7-.67.67ZM162.2 61.6l-1.25.22c.3 0 .7-.08 1.25-.22ZM104.05 93.61l-.36.83c1-.59.42-.56.36-.83ZM242.15 24.44c-.83.07-1.45.19-1.99.35 1-.03 1.89.14 1.99-.35ZM124.41 75c-.3.27-.39.45-.33.55.31-.27.47-.47.33-.54ZM237.97 25.53l.44-.02a9.43 9.43 0 0 1 1.75-.74c-.74.03-1.57.16-2.19.75v.01ZM30.83 146.57c-.05.02-.13.07-.19.08.04.06.11 0 .2-.08ZM8.01 161c.16-.22.47-.52.74-.82-.17.12-.4.35-.74.82ZM258.63 18.54c.07-.08.56-.21 0 0ZM262.02 19.63c-.11.1-.17.19-.16.3 0-.13.06-.23.16-.3ZM233.42 30.54h-.05c.2.04.17.03.05 0ZM259.55 18.5c-.22 0-.49.03-.77.08.13 0 .37-.02.77-.08ZM259.36 18.3l.52-.1c.04-.11-.04-.14-.52.1ZM257.84 18.82c.33-.1.64-.18.94-.24-.12 0-.18 0-.16-.04l-.79.28h.01ZM67.92 115.22l-.13.03c-.36.53-.17.35.13-.03ZM191.82 48.84l.05-.05-.08.01.03.04ZM190 50.02c.6-.95 1.1-1.07 1.79-1.22l-1.22-1.11-.56 2.33Z"/>
		<path d="m115.95 86.2 1.53-.33c-1.2 1.56-2.45 1.97-.9 1.85-.63-1.53 4.95-2.99 4.34-4.53l1.03-.18c-.25.12-.25.23-.5.35 2.04-.26.67-1.74 2.95-2.7.81-.3 1.46-.37 1.03.07l1.5-1.26c.5-.24.5.07 0 .31l2.52-1.5v.05c.25-.42.9-1.22 1.23-1.6.76-.14-.25.34.01.43l1.25-1.12c.77.06-.22 1.06-1.24 1.54 2.1.72.98-1.02 4.33-1.67l-1.27.89c1.3.37 2.22-.48 4-.76-.5-.08-3.73.3-2.36-.88.5-.12 1.1-.36 1.8-1.09.27.52 1.02-.03 2.04-.6l.27.72c1.02-.77.75-1.08 1.25-1.72 1.28-.57 1.8-.18 2.32.12 2.05-.87-1.8-.16.5-1.46 1.8-.56 2.83-1.42 4.63-2.82 1.28-.34 0 .53.51.52l.77-1.06c.26-.1.26.1.26.2.76-.64-.26-.72 1.01-1.6 0-.95 3.37-.26 4.67-1.93.51 0 0 .52.25.74 2.08-1.68 1.82-1.37 3.38-3.05l1.86-.33c-1.45.05-.2-1.3.93-2.44-.55-.05-1.02-.1-1.32-.09l2.01-1.38c.31 0 .2.34-.02.8l.32-.35c.9-.1.68.49.3 1.12l-.98-.07c-.35.66-.62 1.38-.32 1.73.1-.14.33-.35.62-.52-.09.18-.13.33-.04.36.11.04.27-.21.54-.55l.85.55-.02-.36 3.06-.8c1.68-1.7 2.93-3.67 6.03-5.44-.56.93.24 1.01.5 1.72-1.21-.34-2.37 1.43-4.12 2.04.91-.32.86.1.68.3l2.7-2c.17.58.82.14 1.7.02-1.07-.84 1.93-1.7 3-2.57.24.34.11.84-1.42 1.4 2.01.12 1.57-2.22 3.5-2.22-.37.17-.6.2-.65.45.7-.7 2.9-1.35 2.54-.8l-.36.16c2.47-.95 7.4-3.1 7.38-4.2.07.1.16 1.27.08 1.53l3.05-5c-.04.97 2.2 2.3.37 3.6.64-.13 1.4-.3 2.51-1.09-.44.05-1.47-.78-.95-1.07 1.85.31 1.23.07 3.38.11-.67.06-.51-1.48.44-1.81-.07.25.6 1.22.3 1.5l1.84-2.2c-.5.46.33 1.1.99 1.25-.34-.14 2.03-.8 2.6-1.16l-1.11.1c2.71-.87 1.92-2.8 4.6-3.75-.21.38-.18 1.9 1.23 1.54.38-.87 1.55-4.15 3.71-5.55l.59.19 1.63-1.1a40.75 40.75 0 0 1-4.53 6.1c1.12-.08.45.33 1.93-.27.66.14-.61.84-1.04 1.02l3.55-1.1c-.44-.7 2.37-1.78 2-2.35l-3.47 2.22c-.43-.68 1.36-3 3.9-3.76.74.07.02 1.52.17 1.75.23-.39 2.17-1.37 2.47-1.26l-.9.79c1.48-.23 1.88-1.84 3.8-1.72.59-.16 2.06.35 2-.13-1.24-.51-2.4-3.13-2-4 .22-.02 3.3-.3 4.12-.1 1.18.36-.84 2.13.18 2.43-.04-.21.39-.66.57-.81.67-.04-.02.73 1.25.16-.06-.85 2.7-.87.39-.87 1.2-.67 1.42-.33 2.9-.89-.66-.32.76-2.17 1.96-2.86 0 .23.37.38.55.45 2.66-.88 4.2-.99 6.66-1.83.29.11 1.56-.07 1.16.44.31-.27.54-.64 1.3-.92 1.7.17-1.67.69-.27 1.1-.06-.47 1.75-1.29 2.74-1.94-.56-.57-2.55.72-3.53 1.37-.33-.96 1.22-2.6 3.65-3.94 1.97-.92 1.1.33 1.4.08 3.92-1.1 2.75-2.76 6.18-3.14 1.47.2.45 1.2.88 1.55-1.6.78-2.69.46-3.82.87l1.5-.17a4.7 4.7 0 0 1-2.2.92c1.24.2 6.53-2.06 9.69-2.5.46-.37 1.31-.87.8-.98l-.92.39c-1.03-.22 1.55-1.25.29-1.1 1.16-.76 2.4-1.76 4.28-2.05l.56.6c-.11-.2-1.3-.05-1.74.33.65-.56 3.04.07 3.57-1.1l-1.4-.1c1.16-.75 2.5-2.01 4.16-2.27-.93-.47-.35.19-1.72-.28 1.29.7-4.07 1.25-2.17 1.81-1.44-.57-2.13.24-3.88-.08.12.21.67.27-.7.57-.03.09-.15.22-.22.3h-.1.08c-.04.05-.04.06.04 0 .35 0 .65.04.79.14-.49.74-2.6 1.4-3.24 1.9-.82.14.24-.38-.26-.49l-.94.76c-.27-.48-2.36-.16-.6-1.08l-1.68.53a7.23 7.23 0 0 0-3.23.86c-.82.15-1.8 1.23-1.24.6l-2.51 1.18-.07-.12c-2.61.78-5.01 2.65-8.28 2.72-.82.42-1.66.9-3.15 1.24l-.43-.35c-1.07.53-3.48.73-3.8 1.36-1.62-.76-5.48 1.65-7.5 2.13l.13.6c-1.35.46-2.57 1.1-4.15 1.94l.29.46c-1.28.94-3.8 1-6.05 1.89.08-.25.67-.4 1.12-.45-3.13-.15-5.37 3-8.12 3.09-.53.42-1 .53-1.47.56.06-.02.11-.04.15-.08l-.25.08-.95.06c.3.03.59.04.81 0-.46.2-1.14.53-1.79.93l-.5-.42-.16.07c-.76.06-.45.47.07.73-.3.23-.6.46-.78.69-.9-.65-1.7 1.02-2.83.4-.28.63-3.34 1.72-3.33 2.81-.07-.1-.3-.1.07-.25-.81.2-1.63.4-2.21.95l-.6-.55-1.31 1.6c-1.19 0-1.72-.07-.91-1-2.12 1.82-1.86 1.13-3.6 2.78l-.09-.48c-.72.33-1.67 1.4-2.27 1.23-2.02-.18-8.22 3.38-12.8 4.45 1.38.91-2.21.29-1.94 1.37-.38-.2-1.04-.1-.48-.67-2.02 1.27-3.44.98-4.55 2.48-.39-.2.26-.65-.04-.73-.14.14-.56.57-.87.49-.3-.08.2-.4.48-.68-2.18 1.04-1.98 2.07-1.74 3-1.3.1-1.83.4-2.35 1.35-.52-.1-1.3-.1.01-.84-.78.31-4.84 1.78-4.6 2.51-.31-.06-1.08.46-1.25.63-1.72.76-1.9.76-3.55 1.63l.52-.11c-.27 1.14-1.3.85-2.59 1.62v-.1c-3.36.9-1.18.93-4.55 1.74l.42.44c.26 1.25-3.02.66-4.56 1.97l.78-.03c-.77.87-3.42-.13-4.45.23-.26 0 .25-.32.5-.54-2.84.65.01.84-1.77 1.96-.52-.18-.02-1.16-1.31-.57-.78.04-3.05 3.04-5.1 3.27.52.07 1.03.15.28.82-1.27.8-4.11.88-4.84 2.4-.2 0-.31-.03-.36-.1-.89.78-3.07 2.15-3.42 2.94-1.88-1.23-5.72 4.33-6.59 2.72l-3.01 1.82v-.2c-2.03 1-2.49 1.8-2.94 2.58-.52.16-.28-.18-.28-.28-3.01 1.35-3.26 1.58-5.16 3.77l-.55-.37c-.48.65-4.55 1.67-6.92 3.97 0-.08-.02-.2.16-.41-1.36 1.26-3.43 2.04-5.14 2.84-1.7.83-3.07 1.67-3.05 2.94l-1.72 1.76c2.7-1.54.12 1.04 1.39.64-.95.77-2.99 1.17-1.8.26l.26-.04c-.16-1.25-3.45 1.75-3.8 1.07-5 3.47-10.29 6.25-14.95 9.58l1.04.33-1.65 1.12c-.55.13-.97-.16.2-.95-.9.03-1.7 1.72-1.62 1.9-2.48 1.32.28-1.47-.42-.99l-.91.73.27-.07c-.55.84-.4 1.18-1.8 2.18-.97.5-.77-.11-1.12.12-.04-.05-.17 0-.54.37l-2.06 1.44 1.22-.05c-.7.94-1.91 1.38-.51 1.32-1.04.03-2.98 1.33-4.8 2.69-1.78 1.38-3.43 2.8-3.96 2.99-.92 1.35-2.12 2.3-3.65 3.43.46-.18 1.17.25-.18 1.19-.54-1.65-2.78 1.34-4.52 1.3 1.4-.16-3.5 3.12-1.37 2.77-1.13.77-.44-.41-1.49-.04-2.14 2.52-5.76 4.34-8.68 7.16.1.2.81 0 .36.8l-2.3.6c-.54.61.23 1.38-1.34 1.81.28 0 .67 0 .33.4-3.26 2.3-6.13 5.15-9 8a51.06 51.06 0 0 1-9.33 7.86c1.05-.5.57.05 0 .66.44-.32.36.37.63.5l-2.92 1.84c.14 1-2.48 2.61-2.18 3.4l.64-.86c-.34 1.63 2.81-.02 3.48.94.38-1.84 3.97-1.9 4.75-4.77.56-.24-.09.61.32.59.1-.82.62-1.43 1.83-2.3l-.04.21c2.9-2.93 4.45-3.84 8.05-6.74l-.63-.18c.79-.62 1.05-.63 1.5-.83.25-1.4-2.1 1.85-1.98.44 1.76-.03 5.18-4.72 6.7-4.33 1.13-1.02-.76-.2.36-1.21h.54l-.02-.62c.79-.6 1.47-.6 1.7-.4-.2.14-.47.52-.65.72 1.26-.53 2.67-2.5 3.09-2.7l-1.25.8c2.92-2.98 7.04-5.97 9.71-9.05h-.4c2.05-2.35 2.07-1.36 4.54-3.67l-.06.13c.34-.65.97-1.31 1.72-1.85-.48.77 1.64-.52.98.46 2.28-2.48 1.04-1.35 2.15-3.5l.67.04c.35-.78.26-.98 1.52-2.13-.86 1.16 1.25-.13.35 1.23 3.34-1.43 3.58-3.97 5.72-3.82.56-1.95-2.85 1.29-2.3.53-.84.13.53-1.54 1.49-2.1.92-.66 2.47.1 4.73-1.6-.22.16-.19.24-.41.41 1.04-.37 1.4-1.6 2.77-1.94.16-1.04 1.4-.95 1.02-1.84l-2 1.7c1.05-1.06 1.54-2.78 3.84-3.75-.05.26-.5.89-.82 1.3.75-.19 1-.95 1.79-1.15.38.9-2.47 2-3.33 3.52.85-.12 2.03-2.3 1.99-1 .16-1.72 2.36-1.48 3.36-3.42l.22.54c.2-.25.55-.84 1.02-1.15l-.4 1.19c.9-1.42 2.74-1.3 3.78-2.4-2.57 1.78-.97-.18-2.3.24 2.76-2.81 2.69-.02 6.1-2.67-.45.4-2.02.95-1.4.22.74-.36 1.75-.8 2.34-.83 2.3-1.7-.7-.24.12-1.21 1.18.04 1-1.02 1.92-1.9l.33.47c2.92-1.48.06-1.49 2.76-2.71l-.6 1.34 1.17-1 .1.72c1.12-1.31 1.63-1.5 3.1-2.23-.54-.13-.39-1 .8-1.8 1.02-.24-.16.77 1.51-.42-.19.56-.37 1.22-1.4 1.25.02.2-.2.55-.18.76 1.1-.24 2.29-1.37 2.9-1.78-.25.13-.55.3-.74.33.68-.77 1.38-1.5 2.08-2.26.51-.06.28.28.07.62.48-.37.7-.81 1.4-1.32.06.52.37.9-.58 1.76l2.13-1.94c.26.08 1.53-.28 1.3.06 1.48-.57 2.78-2.8 4.75-3.56.05-.13.2-.33.54-.6 1.73-.9 3.52-1.29 5.18-3.01l1.55.06c1.46-1.09-2.06-.02.37-1.83 1.71-1.32 1.04.22 1.8.05.71-.89 1.9-2.56 3.95-2.92-.49.46-.99.6-1.5.95l.08.02Zm19.44-11.02c-.33.3-.92 1.03-1.36.87.13-.81.62-.7 1.36-.87Zm29.96-16.16c-.21.31-.7.43-1.31.46a3.4 3.4 0 0 1 1.31-.46Zm87.2-38-.03.03c-.99.1-.63.08.04-.03Zm2-.4c.17-.14.14-.21.03-.26-.08.18-.51.33-1.02.45.18.1.47.12 1-.19ZM60.5 115.8l.4-.1c-.6.67-.5.4-.4.1Z"/>
		<path d="M162.17 61.34a.52.52 0 0 1-.3-.2c-.1.15-.07.26.3.2ZM104.11 93.46l-.06.02v.12l.08-.16-.02.02ZM226.63 35.37c-.42.06-.67.04-.85 0 .02.14.24.18.85 0ZM264.43 16.42l-1.18.54c.58-.22.83-.17 1.17-.17-.07-.12-.36-.23.02-.36v-.01ZM276.2 16.52c.15-.12.38-.12.53-.26l-.13-.24c-.76.26-1.23.63-.4.5ZM266.15 17.9c.24.43.97.02 1.8-.33l-.15.05c.05-.73-.8-.23-1.65.28ZM268.15 17.49c.26-.1.53-.2.8-.27.03-.28-.33.05-.8.27ZM256.89 19.53c.44 0 .07-.67.36-.57.26-.73-2.5 1.59-.36.57ZM267.32 19.2l-.49-.48-.33.62.82-.14ZM260.4 20.95l1.41-.28c-.04-.08.11-.2.31-.31-.84.25-1.81.43-1.73.59ZM262.12 20.36c.45-.13.87-.28 1.08-.45-.24.09-.74.27-1.08.45ZM265.5 19.97l-.45.02-.98.26 1.43-.28ZM245.6 25.67l-1.43.68c-.09.25.36.22.88-.04.31-.26.84-.53.55-.64ZM250.65 25.73c-.45.02-.52-.1-.8-.21l.19.72.6-.5ZM246.34 27.34c-.08.26-1.97 1.3-.1.62.1-.26 1.54-.9.1-.62ZM223.64 34.28l.38-.14-.48-1.13.1 1.27ZM205.13 44.38c1.84-.4.14-.87 1.84-1.13.3-.43-1.39.21-1.06-.18-.95.68-1.56.73-.78 1.3Z"/>
		<path d="M205.9 43.08c.16-.1.32-.23.47-.38-.27.19-.4.3-.46.38ZM4.44 163.71l-1.03.69.83-.28.2-.41ZM3.46 166l-.76-.34v1c.17-.21.5-.65.76-.67ZM139.05 75.06v-.2c-.26-.1-.52.02-1.03.24l1.03-.03v-.01ZM124.49 82.11l.25-.12-.8-.36.55.48ZM113.1 89.56c.48-.27.97-.73 1.48-.97-1 .7-2.05.28-1.49.97ZM2.55 137.34l-.55.01c.12.06.68-.03.55-.01ZM3.73 137.96h-.2l.51.08-.31-.08ZM3.79 138.65c.85-.13-.16-.24.13-.39l.2-.03h-.7c.12.14.58.3.36.42h.01ZM1.97 139.15c.34-.05.29.06.1-.1a.17.17 0 0 0-.09.03v.07Z"/>
		<path d="M1.98 139.08c-.27.07-.02-.07 0 0ZM2.2 139.4l-.3-.08c-.19.04-.23.12-.38.1.17.08.36.04.68-.03ZM2.83 139.43l-.13-.04c-.08.01-.1.03.13.04Z"/>
		<path d="m2.43 139.3.27.1c.13-.03.4-.06-.1-.04.26 0 0-.02-.16-.05h-.01ZM2.56 139.25c.18-.07.3-.15.6-.07-.13-.17-.73-.1-.6.07ZM4.66 138.61l.24-.1-.28-.03c.14.02-.22.16.04.13ZM1.8 140c.18 0 .48-.06.72-.08l-.21-.06c-.12.05-.23.12-.5.14ZM2.51 139.9l.32.1c.04-.1-.12-.1-.32-.1ZM3.78 139.38l-.67-.12.68.16-.01-.04ZM1.8 140.39l-.41-.02.63.06-.21-.04ZM1.9 140.65c-.35-.02-.59.1-.8.06.07.06.37.11.65.15-.16-.05-.12-.11.15-.2ZM2.13 140.93c-.09-.03-.24-.05-.4-.07l.4.07ZM2.75 140.17c-.1.01-.4.05-.51.12l.5-.07v-.04ZM2.76 140.22h-.01l-.02.1s0-.04.03-.1ZM3.34 139.7c.28.03.6.14 1.02 0-.34-.03-.6.06-1.02 0ZM3.38 140.08l.11-.12c-.13 0-.33.04-.48.02l.36.1h.01ZM3.55 140.11l-.17-.03-.03.03h.2ZM2.6 140.71c.22.04.25.09.28.15.1-.08.14-.14.14-.2-.15 0-.45 0-.43.05ZM2.92 141.43h.1-.1ZM3.12 140.63c.1-.05-.04-.07-.2-.1.06.04.1.07.1.11.08 0 .12 0 .1-.01ZM2.38 141.07l.27-.1c-.15.04-.4.1-.27.1ZM2.62 140.5h-.03c-.1.02-.06 0 .03 0Z"/>
		<path d="M2.62 140.5c.07.02.2.03.3.04l-.17-.07c-.04 0-.1.01-.14.03ZM6.2 141.43c-.49.01-.93-.08-.43-.22a14.2 14.2 0 0 0-2.77.2c.2 0 .4-.03.68.07.25-.05.59-.27 1.03-.2.25.13-.15.13-.4.21.58-.1.87.15 1.73.06l-.31-.1c.13 0 .34.02.48-.02h-.02ZM3.04 141.2l-.06-.03c-.09.06-.27.1-.64.2.24.05.4.06.58.05l.06-.23h.07l-.01.02Z"/>
		<path d="M2.97 140.97c.5 0 .74.1 1.29 0-.05-.14-.43-.08-.66-.14.14.2-.29-.05-.58.13-.1-.03-.11-.07-.14-.1-.06.03-.13.08-.23.12h.04c.06-.01.1-.03.06 0h.2c-.12.07-.14 0-.2 0h-.07l.3.19c.07-.05.04-.1-.01-.2ZM5.48 139.72h-.12c.06 0 .1.02.12 0ZM5.18 139.82c-.07 0-.28 0-.23-.06.16-.06.25 0 .42-.03-.15-.03-.37-.09-.62.03h.07c-.17.11-.8.27-.87.26.46-.06.78-.1 1.24-.2h-.01ZM4.2 140.4l.26.17.44-.12-.26.02c.1-.1-.23-.06-.43-.06l-.01-.01ZM2.65 141.46h-.53l.76.07-.23-.07ZM2.74 141.69l-.48.02.29.03.19-.06ZM8.46 155.04l.14.06-.14-.06ZM8.52 154.65l-.22-.03c.13.03.21.04.22.03ZM2.93 147.31c-.44.08-1.12.16-.6.15l.52-.03c-.1-.04-.04-.1.07-.13v.01ZM5.94 151.3l.16-.01-.5-.07.34.08ZM8.08 151.44l-.33.1c.12-.03.22-.05.33-.1ZM8.83 157.25l.53.11c0-.1-.26-.08-.53-.1ZM3.02 144.03c-.2.07-.28.12-.3.16.3-.08.74-.16.3-.16ZM2.98 154.5c.1.04.19.06.3.08a.99.99 0 0 0-.3-.08ZM2.73 144.38l.12-.03c-.09-.05-.16-.1-.14-.16-.21.06-.36.13 0 .2h.02ZM7.41 165.02h-.06.06ZM1.87 166.32s-.03-.06-.03-.1c-.04 0-.04.03.03.1ZM4.6 142.28s.12.02.24 0H4.6ZM5.97 144.8c.08 0 .1 0 0 0ZM2.79 142.54l-.16.07c.04 0 .08-.04.16-.07ZM2.55 142.56l.04-.05c-.08 0-.14 0-.04.05ZM2.58 142.68s.02-.06.05-.08h-.08l.03.08ZM6.64 160.67h-.05c.2.08.18.05.05 0ZM8.7 148.85c-.65-.08-.57-.13-.44-.2l-1.5.04 1.93.15v.01Z"/>
		<path d="m8.54 156 .47-.1c.76.22.48.32 1.15.25-1.61-.15-.13-.53-1.74-.66l.34-.06s.08.03.06.06c.8-.11-1.16-.22-.92-.41.13-.06.37-.1.56-.04l-.38-.19s.31-.01.28.04l-.11-.27h.05c-.25-.04-.64-.15-.8-.2.24-.05.16.05.37.04l-.39-.17c.42-.03.83.1.76.2 1.62-.02-.4-.14.56-.36l.2.15c.92-.03.6-.16 1.19-.27-.3.03-1.46.22-1.86.04.12-.04.2-.09-.13-.2.58.04.44-.05.4-.15l.77.05c-.21-.12-.6-.13-.94-.22.08-.12.67-.1 1.17-.1.13-.2-.96.08-1.09-.16.3-.15 0-.28-.45-.5.27-.09.46.05.68.02l-.6-.13h.3c-.23-.1-.76-.05-.97-.2-.83-.07 1.25-.21.3-.42.22-.03.47.04.77.04-.63-.25-.45-.22-1.28-.43l.5-.14c-.57.1-1.26-.08-1.8-.22l-.64.07-.4-.22c.12-.02.38 0 .7.06-.06 0-.12-.03-.18-.04.29-.06.73 0 1.15.06-.16 0-.31.03-.48.06.47.07.98.13 1.42.14a.56.56 0 0 1-.2-.07 1 1 0 0 0 .3.02c.1 0-.07-.03-.28-.07h.85l-.33-.04.53-.25c-.84-.23-2.1-.43-2.45-.74.63.1 1.02.04 1.76.07-.79.06.32.24.16.4.08-.09.44-.05.56-.03l-.7-.3c.6.03.45-.05.7-.1-1.2.02-.8-.24-1.16-.37.4 0 .81.04.72.18.9-.13-1.4-.24-.64-.37 0 .04-.05.05.16.07-.36-.08-.07-.27.27-.21v.03c.16-.22.04-.68-.98-.74l1.44.07-3.41-.46c.87.05 2.95-.05 3.44.14.12-.05.28-.12-.03-.24a7.2 7.2 0 0 1-1.34.02c.97-.12.52-.08 1.35-.25a5.2 5.2 0 0 1-1.52-.11c.2.01 1.35 0 1.5.04l-1.34-.23c.24.06 1.13.02 1.51-.03-.26.03.03-.19-.1-.25l-.31.1c.2-.24-1.9-.25-1.82-.5.27.03 1.7.08 1.88-.04-.7-.06-3.32-.25-3.84-.46l.4-.03-.45-.16c1.04.1 3.22.37 4.07.53.3-.1.46-.03.43-.17.37-.05.56.07.58.12l.24-.32c-.8 0-.8-.24-1.47-.23l.84.35c-.8 0-2.29-.2-2.14-.42.32-.06 1.43.03 1.7.02-.28-.02-.53-.22-.34-.23l.43.1c.3-.13-1.06-.2-.3-.36.05-.05 1.03-.17.56-.17-.92.1-3.75.14-4.44.1.06-.02.87-.28 1.32-.35.72-.1 1.71.1 2.33.02-.21 0-.49-.05-.57-.06.2-.06.68.01.57-.1-.8 0 .06-.25-.69-.05-.24-.11.17-.14.13-.27-.52.05-1.8-.08-2.03-.19.2 0 .48-.02.6-.05.07-.24.43-.37.43-.59.19-.02.43-.14.79-.1-.15-.03-.42-.05-.45-.13.71-.15.12.15.96.03-.48 0-.66-.16-.96-.24-.72.05-.13.23.17.31-1 .03-2.07-.1-2.54-.32-.26-.17.64-.1.5-.12.16-.35-1.77-.23-1.05-.53.63-.13 1.27-.06 1.74-.1.25.15-.4.24-.37.34l.3-.13c.21.03.38.13.2.19.56-.12.09-.58.6-.86-.21-.04-.44-.11-.7-.06l.1.08c-.52.1-.74-.12-.97 0-.37-.1-.94-.2-.65-.36l.73-.06c-.22.01-.43.12-.2.16-.33-.05.97-.3 0-.32l-.5.13c-.37-.1-1.16-.19-.93-.33-.72.1.08.02-.75.17 1.05-.13-.03.34 1.07.15-.98.15-.4.2-1.24.36.24 0 .45-.07.35.05l.21.01h-.01.02c.05 0 .04 0 0 0 .11-.03.23-.06.36-.07.56.04.55.22.84.27-.1.07-.28-.02-.54.03l.43.07c-.54.04-.88.22-1.2.07l-.03.15c-.3.1-.42.22-.2.28-.11.07.6.14.19.1l.33.22h-.13c-.06.23.91.43-.06.72.14.07.31.14.16.28l-.47.03c.17.1-.45.3.02.33-1.24.13-.26.46-.49.63h.61c-.03.11.15.23.39.36h.53c.45.11-.37.31-.32.5-.2 0-.15-.05-.02-.09-1.21.24.88.5 0 .7.19.06.13.1 0 .14l-.03-.01v.02l-.28.07c.13-.02.24-.04.28-.06 0 .04.08.11.22.17l-.57.03c-.2.07.28.06.71.03.1.04.2.06.35.09-.93.04.31.16-.68.22.48.05.36.32 1.37.35-.13 0-.19.03-.2-.01-.12.07-.23.13.06.2l-.73.03.98.17c-.44.08-.7.12-1.27.02.86.23.33.18 1.17.38h-.47s.64.17.25.2c-.9.14-.15.74-.98 1.1 1.4-.03-.64.16.45.2-.33 0-.51.06-.8 0 .31.2-.54.28.37.44-.33 0-.48-.06-.68-.05.07.01.29.07.08.08-.19.01-.27-.03-.42-.07.05.2 1.07.25 2.01.3-.45.09-.4.13.23.23-.31.02-.65.07-.75-.06-.05.07-.48.4.28.44-.19.01-.06.1.03.12-.05.16-.12.17-.06.33l.13-.04c.92.11.2.13.3.27h-.1c-.68.24.31.13-.46.37h.57c1.23.1-.74.23-.27.4l.33-.03c.42.1-1.69.16-1.84.23-.1.01-.17-.04-.25-.07-.74.18.75.07.9.25-.4 0-1.02-.11-1.1 0-.34.03 1.29.42.5.53.3-.02.63-.03.86.07.1.13-1.21.25-.23.43h-.25c.25.1.4.34.92.43-1.98-.06.92.66-.9.52l.06.3-.19-.03c-.13.17.3.28.73.38-.13.03-.3-.01-.4-.03-.39.24-.3.27.58.58l-.6-.04c.34.1-.95.3-.3.63a.75.75 0 0 1-.26-.06c.67.37-1.7.54.43.86l.5.25c.2-.24.94.14 1.3.08.11.12-.69.19-.78.06h.1c-1.1-.17-.43.26-1.19.18 0 .5-.67.9-.78 1.36l.88.06-.08.16c-.2.01-.68-.02-.63-.14-.5 0 .38.24.57.27-.38.18-1-.21-1.02-.15l.04.1h.11c.35.1.72.16.66.3-.18.05-.54-.03-.58 0-.06 0-.1 0-.03.04l-.1.2h.7c.32.14-.06.18.73.2-1.21-.03-.53.7-.92.74.47.2.45.32.37.47.14-.01.92.07.8.19-1.58-.28-.73.14-1.88.08.77.02.13.41 1.23.42-.14.1-.6-.08-.98-.06.57.36-.49.52-.33.88.2.04.53.04.82.16H1.76c.1.08 1.18.26.45.26.18.01.44.04.5.09-1.1.46.61 1.46-1.4 1.76.41-.01.44.05.45.12.1-.03.51.1.79.14l-.83.13c.77.2 0 .3.74.47l-.12-.1c.86.28 1.98.2 3.1.44-.97-.33 1.54-.07.15-.55.24 0 .36.1.63.13-.48-.14-.57-.23-.33-.31l.12.03c-.06-.37.46-.43.84-.76l-.56-.08c.08-.07.26-.06.42-.07-.83-.24-.09.23-1-.02 1.15.08.11-.6 1.42-.45.02-.13-.66-.07-.63-.2l.36.02-.44-.1c.08-.08.54-.05.82 0-.03 0 .08.07.1.1.43-.06-.08-.34.05-.36l-.24.1c-.28-.4.26-.77-.4-1.23h-.27c-.45-.34.32-.18.13-.5l.06.02c-.25-.1-.38-.19-.33-.26.3.12.62-.05.95.1-.48-.36-.4-.2-1.35-.53l.44.02c-.38-.12-.6-.15-.69-.31.36.17.68 0 1.16.2 1-.16-.9-.57.51-.52-1.2-.3-.7.16-.95.06-.4 0-.9-.24-.77-.32.04-.1 1.58.05 1.6-.2 0 .02.08.04.06.06.33-.05-.39-.23.12-.28-.73-.15.06-.14-.87-.27l.2.25c-.23-.16-1.32-.4-.76-.55.2.03.43.13.56.19.29-.02-.17-.14.12-.17.93.13.17.3.87.52.41-.01-.64-.35.36-.15-1.28-.26.2-.21-.77-.5l.56.08c-.09-.03-.35-.12-.33-.16l.72.18c-.6-.2.58-.2.25-.36 0 .27-.68-.03-1.1.04-.73-.42 1.49 0 1.26-.42.07.06-.36.16-.61.04.12-.06.35-.12.64-.13-.1-.27-.58-.03-.92-.17.7 0-.26-.16-.47-.29l.57.06c.4-.24-1.18-.2-.72-.4l.8.19-.2-.16.65.1c-.47-.2-.34-.23-.15-.35-.4 0-1.04-.13-1.04-.25.35-.05.54.1.48-.09.36.07.8.17.26.2l.54.1c.4-.05.12-.22.12-.29-.02.03-.06.05-.14.06l-.77-.33c.22-.03.4.03.56.08-.06-.06-.32-.12-.35-.2.46.06.94.1 1.15.24l-.49-.3c.2 0 .58-.07.75-.03.28-.1-.88-.42-.5-.56a.62.62 0 0 1-.23-.08c.12-.16.7-.27.08-.52l.85-.04c-.18-.16-1.06.06-1.36-.22-.25-.2.71 0 .95-.06-.42-.14-1.26-.37-.57-.47.15.07.02.1.08.15l.09-.05Zm-.23-1.95c.12.05.49.14.14.14-.66-.08-.33-.1-.14-.14Zm-1.24-3c.19.04.1.08-.14.12-.04-.04-.02-.07.14-.11Zm-4.02-7.93h.02c-.22.09-.13.06-.02 0Zm.24-.18h-.24c.14 0 .15.05.12.09.15-.01.25-.05.12-.09ZM2.7 160.7h.16c.15.08 0 .03-.16 0Z"/>
		<path d="M7.84 151.42h-.3c.09.02.2.02.3 0ZM8.74 157.24h-.01l.1.01h-.09ZM8.25 145.44c-.08.04-.2.06-.3.07.14 0 .26-.02.3-.07ZM2.27 142.13l.16.1s.1-.08.18-.11c-.14 0-.33.03-.34 0ZM5.79 141.01c-.08 0 0-.03-.09-.04l-.26.02c.02.07.24.1.35.02ZM4.17 141.94c.48-.04.31-.1.23-.16v.01c-.68.02-.45.09-.23.15ZM4.39 141.76s-.04-.05-.01-.07c-.28 0-.06.03 0 .07ZM2.95 142.76c.12-.03-.62 0-.42-.02-.62-.01.76.2.42.02ZM5.77 141.8l-.6.05.49.03.11-.09ZM5.36 142.42l.15-.13c-.1 0-.15 0-.2-.03-.01.07-.13.17.05.16ZM5.32 142.26s0-.07-.1-.1c0 .03.02.06.1.1ZM5.95 141.96l-.12.04-.03.08.15-.12ZM5.3 143.72l.18.14c.2 0 .33-.04.25-.09-.15-.02-.23-.07-.42-.05H5.3ZM6.92 143.26c-.12.03-.25.05-.45.07l.74-.03-.29-.04ZM7.1 143.65c.2 0 .6.18.55 0-.2 0-.38-.13-.55 0ZM6.22 145.68l-.02-.03-1.21.02 1.23.01ZM9.13 147.46c.3-.16-.75-.04-.38-.18-.29-.04-.3.12-.55.08.3.1.13.15.93.11v-.01ZM8.2 147.35l-.18-.05c.07.03.13.04.18.05ZM1.16 166.56l-.26.04.41.02-.15-.06ZM2.02 166.9l-.77-.12.69.2s-.09-.09.08-.08ZM9.89 153.86l-.2-.03c-.2 0-.2.03-.24.07l.44-.06v.02ZM9.2 155.24l.03-.03-.7-.01.68.04ZM10 156.5s-.11-.12-.08-.17c.12.12-.79.1.09.17ZM55.48 152.44c.08.04.04-.46.06-.55-.15.12-.05.68-.06.55ZM54.09 153.64l.02-.2-.19.5.17-.3ZM52.77 153.68c.16.85.47-.16.72.14l.05.2.08-.7c-.28.12-.63.58-.85.36ZM51.99 151.85c.06.34-.15.29.16.1a.59.59 0 0 0-.03-.09h-.13Z"/>
		<path d="M52.12 151.86c-.11-.27.14-.02 0 0ZM51.47 152.1l.17-.32c-.05-.2-.22-.23-.17-.37-.18.18-.13.37 0 .68ZM51.34 152.73l.08-.13c-.02-.09-.04-.11-.08.13Z"/>
		<path d="m51.62 152.32-.2.28c.04.13.05.4.09-.1 0 .25.02 0 .1-.18ZM51.73 152.44c.11.18.26.29.09.6.34-.14.26-.73-.09-.6ZM52.74 154.56l.14.24.1-.28c-.04.14-.27-.23-.24.04ZM50.3 151.72c0 .18.1.48.12.7l.12-.2c-.07-.13-.22-.24-.24-.5ZM50.42 152.43l-.18.32c.18.03.2-.12.18-.32ZM51.35 153.68l.3-.68-.36.69.06-.01ZM49.51 151.74l.1-.43-.17.65.07-.22ZM49 151.85c.06-.35-.16-.59-.09-.8-.14.07-.24.37-.32.64.1-.15.23-.13.4.15v.01ZM48.43 152.1c.05-.08.1-.24.16-.4-.06.08-.1.2-.16.4ZM49.88 152.7c-.02-.12-.07-.4-.2-.51l.12.5h.08ZM49.8 152.7a.76.76 0 0 0-.18-.03c.02 0 .07 0 .18.03ZM49.9 152.7h-.02s.01.05.02 0ZM50.79 153.24c-.1.3-.34.62-.07 1.04.06-.36-.09-.6.07-1.04ZM50.04 153.32l.22.1c0-.13-.06-.32 0-.48l-.22.38ZM49.94 153.5l.1-.18-.09-.04-.01.22ZM48.84 152.56c-.08.23-.18.25-.29.3.14.1.27.14.39.13 0-.15.03-.46-.1-.43ZM49.3 152.67l-.02.03s.03.06.03-.03ZM47.42 152.94l.02.1v-.08h-.02v-.02ZM48.96 153.08c.1.1.14-.04.2-.2a.4.4 0 0 1-.22.11c0 .07 0 .12.02.1v-.01ZM48.14 152.37l.18.26c-.06-.16-.18-.4-.18-.26ZM49.25 152.56v-.02c-.03-.11-.03-.06 0 .02Z"/>
		<path d="M49.25 152.56c-.05.07-.07.2-.11.32.06-.04.1-.1.14-.18a1.25 1.25 0 0 1-.03-.14ZM47.33 156.26c-.02-.48.18-.94.44-.45.17-.37-.08-1.92-.33-2.77 0 .2.03.4-.17.7.1.25.52.56.38 1-.27.27-.24-.14-.4-.38.17.58-.29.89-.15 1.75l.21-.32c.01.13-.06.36.02.48v-.01ZM47.85 153.05l.08-.06c-.1-.07-.19-.25-.36-.61a1.1 1.1 0 0 0-.14.58l.44.02-.02.07ZM48.33 152.94c-.04.52-.23.76-.06 1.31.25-.06.14-.44.28-.68-.4.17.1-.3-.22-.57a.4.4 0 0 1 .21-.15 1.28 1.28 0 0 1-.22-.22v.04c.03.07.04.1 0 .07v.2c-.12-.1-.02-.14 0-.2v-.07l-.39.31c.1.06.2.04.4-.04ZM50.58 155.4l-.03-.12c-.02.06-.04.11.03.13ZM50.38 155.1c.03-.07.04-.27.15-.24.1.15 0 .26.02.42.05-.14.18-.38-.01-.62l-.03.07c-.17-.17-.43-.8-.4-.87.07.45.14.79.27 1.23v.01ZM49.35 154.16l-.32.27.2.43-.02-.26c.2.1.14-.24.14-.44ZM47.36 152.7v-.56l-.15.8.15-.25ZM46.9 152.8v-.48l-.1.3.1.18ZM23.2 162.75l-.05.16.06-.16ZM23.9 162.62l-.04-.23c0 .13 0 .23.04.23ZM35.88 154.17c-.21-.42-.49-1.07-.38-.54l.13.5c.08-.1.18-.06.26.04h-.01ZM29.03 158.59l.07.14v-.5l-.07.36ZM29.36 160.72l-.25-.29c.07.11.15.2.25.3ZM19.6 164.3l.03.54c.17-.05.03-.29-.03-.54ZM42.31 153.44c-.15-.2-.26-.27-.36-.28.2.28.36.7.36.28ZM22.12 157.34a.5.5 0 0 0 0 .32c.03-.1.05-.2 0-.32Z"/>
		<path d="M41.6 153.2s.06.07.08.12c.08-.1.17-.18.29-.16-.15-.2-.3-.34-.37.04ZM6.13 168.43l-.04-.05c.02.07.03.06.04.05ZM.56 168.78l-.1-.15c-.03.05 0 .09.1.15ZM45.08 152.72c0-.06.09-.04 0 0ZM45.72 154.73s-.02.13-.01.25l.01-.25ZM41.05 156.53c.03.09.03.1 0 0ZM45.24 152.94l-.13-.14c.02.04.06.08.13.14ZM45.2 152.7l.08.05c0-.08 0-.14-.09-.05Z"/>
		<path d="M44.94 152.76s.11 0 .16.04c-.02-.04-.04-.06-.02-.08l-.14.03v.01ZM12.8 164.51l-.04-.03c-.03.24 0 .2.03.03ZM34.34 159.9v-.02h-.01v.03ZM34.08 160.35c.02-.66.12-.6.25-.48l-.37-1.47.12 1.95Z"/>
		<path d="m21.6 163.34.34.38c-.07.82-.34.62.05 1.2-.4-1.6.82-.4.44-1.99l.24.3s-.02.08-.07.08c.49.69-.09-1.2.34-1.06.17.08.31.3.28.5l.19-.47c.1 0 .14.29.05.28l.4-.24v.05c0-.27.06-.69.09-.87.17.2-.01.18.06.37l.15-.44c.2.38.1.83-.08.82.62 1.52.1-.45.82.34l-.17.27c.37.86.46.49.86.98-.14-.27-.86-1.28-.7-1.74.11.1.22.13.29-.23.13.57.24.39.4.32l.17.74c.14-.26.04-.64.06-1 .23.03.41.6.58 1.07.37.05-.46-.87-.09-1.1.35.21.48-.13.72-.65.25.22.07.47.2.66l.03-.64s.07.2.08.3c.1-.27-.15-.76.04-1.02-.12-.84.74 1.1.82.1.12.2.06.47.16.76.26-.71.24-.53.4-1.43l.38.43c-.33-.53-.2-1.25-.09-1.84l-.3-.58.28-.49c.07.13.08.39.1.71 0-.07.02-.13.03-.19.2.25.21.7.2 1.14l-.22-.43c0 .48.02 1 .13 1.43 0-.1.03-.18.08-.23 0 .13 0 .24.04.31.02.07.03-.1.04-.3l.26.82-.05-.34.58.43c.17-.9.22-2.22.7-2.67 0 .64.18 1 .3 1.74-.3-.75-.35.4-.66.31.17.05.2.4.19.54l.36-.8c.1.6.19.42.37.64-.34-1.16.23-.86.36-1.26.08.4.12.8-.16.77.44.84.1-1.46.5-.75-.06.02-.1-.04-.1.16.08-.37.49-.15.47.2l-.05.03c.43.07 1.23-.22 1.12-1.22l.17 1.43.14-3.52c.08.88.68 2.9.43 3.43.12.11.26.23.4-.1a3.83 3.83 0 0 1-.3-1.33c.41.92.27.48.71 1.25-.13-.17-.25-1.55-.08-1.52 0 .2.24 1.33.2 1.48l.17-1.39c-.06.25.17 1.13.31 1.5-.08-.25.34-.02.42-.18l-.22-.28c.47.13.14-1.95.59-1.95 0 .29.13 1.72.38 1.85 0-.7-.05-3.36.28-3.95l.13.38.24-.49c-.04 1.06-.24 3.3-.4 4.2.22.28.12.45.36.38.15.34-.05.57-.12.6l.61.15c-.14-.8.33-.86.2-1.52l-.5.92c-.14-.8.03-2.31.46-2.24.15.3.13 1.43.18 1.7 0-.29.3-.59.37-.4l-.11.46c.26.26.22-1.12.6-.38.1.03.42 1 .37.51-.28-.88-.7-3.7-.68-4.4.05.06.62.8.79 1.25.25.7 0 1.74.2 2.33-.02-.22.02-.5.05-.6.12.17.05.7.25.56-.07-.82.44 0 .01-.7.18-.26.25.13.5.07-.15-.51 0-1.8.17-2.07.01.2.1.47.13.59.44.02.73.34 1.14.3.06.2.28.42.24.78.03-.15.06-.43.19-.47.32.67-.27.14.01.96-.04-.47.25-.69.4-1-.14-.72-.44-.1-.58.22-.12-1 .07-2.09.45-2.6.32-.3.22.63.27.47.66.11.36-1.8.98-1.15.27.63.14 1.27.23 1.73-.26.28-.47-.36-.66-.31l.26.27c-.07.23-.24.41-.36.23.24.55 1.09 0 1.64.48.07-.22.2-.45.1-.7l-.15.1c-.19-.5.23-.74 0-.97.18-.38.36-.97.68-.7l.12.72c-.02-.21-.24-.42-.3-.19.1-.33.54.95.6-.01l-.25-.5c.18-.38.38-1.18.67-.96-.18-.71-.06.08-.31-.75.25 1.05-.68.01-.32 1.1-.29-.98-.37-.39-.7-1.2.03.23.12.45-.12.35l-.02.22c0 .05 0 .04 0 0 .06.1.12.23.14.36-.06.56-.41.58-.5.88-.14-.1.03-.3-.07-.53l-.13.44c-.07-.54-.44-.85-.16-1.2h-.28c-.2-.27-.45-.37-.55-.13-.15-.1-.28.62-.2.2l-.41.38-.03-.14c-.44-.02-.79.99-1.4.08-.13.14-.26.33-.52.21l-.11-.45c-.17.19-.62-.39-.65.1-.35-1.22-.94-.15-1.3-.32l.07.6c-.22 0-.43.2-.67.48l.1.53c-.18.47-.67-.29-1.05-.18 0-.2.1-.17.19-.06-.64-1.13-.84 1.02-1.38.21-.07.2-.15.16-.25.04l.03-.04h-.05c-.06-.08-.12-.18-.2-.26a.9.9 0 0 0 .17.26c-.08.03-.19.11-.28.27l-.15-.57-.02.03c-.16-.2-.05.29.08.7-.04.11-.08.23-.1.38-.23-.91-.26.36-.54-.6 0 .49-.54.45-.43 1.47-.03-.13-.07-.19 0-.2-.16-.1-.3-.18-.37.12l-.18-.72-.12 1.02c-.25-.4-.37-.65-.29-1.24-.26.94-.29.39-.49 1.3l-.07-.47c-.12.04-.22.71-.36.33-.44-.84-1.42.12-2.3-.56.41 1.35-.45-.55-.27.53-.1-.31-.24-.48-.18-.78-.31.4-.66-.4-.74.55-.1-.3-.01-.49-.1-.67 0 .07-.06.3-.14.12-.07-.18 0-.29.02-.43-.37.13-.2 1.14-.03 2.08-.29-.41-.37-.33-.37.32-.13-.29-.31-.59-.1-.74-.14-.03-.9-.3-.75.47-.09-.19-.2-.02-.22.08-.3.02-.34-.04-.62.1l.1.1c.1.93-.18.25-.4.42v-.1c-.7-.52-.16.37-.86-.26l.16.55c.22 1.22-.62-.6-.83-.07l.18.3c-.07.46-.85-1.53-1.05-1.64-.06-.1.01-.18.05-.28-.61-.6.12.75-.17 1-.16-.38-.17-1.02-.4-1.04-.2-.3-.33 1.44-.82.75.14.29.29.58.2.84-.21.17-.93-1-.9.03a.98.98 0 0 1-.1-.23c-.12.29-.47.55-.44 1.1-.67-1.88-.85 1.23-1.32-.54l-.51.24-.04-.18c-.38-.02-.38.43-.4.9-.1-.1-.09-.28-.11-.37-.61-.22-.64-.13-.82.86l-.2-.56c-.02.36-1-.7-1.29.13-.01-.07-.04-.18-.02-.28-.36.84-1.8-1.17-1.4.97l-.2.62c.52.02.2.92.5 1.2-.14.18-.66-.48-.47-.66l.07.1c-.25-1.1-.7-.2-.92-.95-.9.35-2 .05-2.88.29l.37.8-.32.05c-.15-.17-.33-.61-.1-.65-.27-.43-.23.52-.18.7-.54-.2-.15-1.02-.3-1l-.15.12.07.08c-.02.39.08.76-.2.8-.2-.1-.25-.47-.33-.48-.02-.06-.04-.09-.1 0l-.41.06.38.6c-.06.38-.37.1.06.76-.64-1.05-1.54.09-1.83-.21-.06.56-.3.63-.6.67.12.1.44.83.16.83-.47-1.55-.68-.48-1.28-1.5.44.65-.63.44.03 1.35-.26-.04-.23-.56-.52-.85-.26.77-1.22.03-1.74.46.07.2.28.47.27.8l-.7-.86c-.09.14.33 1.18-.15.59.1.15.24.38.18.48-1.2-.38-1.78.89-2.87.86l-1.06-.02.02 2.67c0 .32-.1.68-.38 1.12.3-.32.38-.24.45-.12.06-.12.48-.22.73-.35l-.5.82c.77-.24.29.49 1 .24l-.2-.1c.91-.17 1.69-1.1 2.74-1.55-1.03.2 1.1-1.22-.4-1 .18-.17.38-.08.59-.23-.49.1-.63.03-.53-.27l.12-.02-.07-.12-1 2.57c.5-.23.93.06 1.65.1l-.27-.51c.17.01.28.17.4.26-.16-.86-.42.12-.63-.82.62 1 1.02-.4 1.63.76.23-.08-.3-.58-.08-.67l.2.31-.12-.44c.17 0 .41.4.53.67-.05-.02-.07.12-.1.16.34.31.48-.35.59-.24l-.29-.12c.5-.54 1.4-.39 1.72-1.29l-.14-.24c.28-.63.47.15.87-.26v.07c0-.29.1-.47.24-.5-.02.34.45.5.4.88.3-.67.1-.47.08-1.53l.23.4c-.03-.42-.09-.63.13-.82-.07.43.38.59.32 1.14.85.73.46-1.2 1.16.06-.16-1.25-.68-.5-.63-.78-.25-.34-.1-.94.1-.88.19-.03.8 1.4 1.21 1.23-.04 0 0 .1-.06.1.27.25.17-.51.53-.1-.13-.74.26-.03 0-.94l-.32.34c.14-.31 0-1.43.52-1.05.04.2 0 .47-.02.63.2.22.14-.24.35 0 .26.9-.41.34-.41 1.11.24.35.23-.79.43.22-.24-1.3.47.02.44-1.02l.16.55c.01-.1.02-.38.12-.4l.08.76c.04-.67.61.38.73-.02-.45.17-.31-.63-.63-.95.33-.91.79 1.3 1.34.84-.06.1-.43-.22-.37-.52.15.08.38.23.55.5.38-.26-.24-.54-.17-.93.34.61.12-.33.24-.61l.18.55c.6.2-.23-1.19.34-.9l.05.83.17-.26.14.64c.11-.54.22-.44.52-.33-.18-.38-.28-1.02-.06-1.1.25.3.07.56.36.39.03.37.1.83-.2.36.04.18.04.37.08.55.27.34.41-.03.52-.07-.05 0-.1-.03-.15-.1l.21-.9c.13.2.12.38.12.56.07-.09.06-.37.18-.45.1.46.24.93.12 1.19l.27-.63c.09.2.38.49.38.67.3.19.3-1.06.72-.78 0-.1 0-.19.05-.27.33.03.73.5.91-.22l.42.76c.21-.26-.55-.95-.18-1.38.25-.35.31.66.48.85.05-.45.1-1.37.57-.78-.06.18-.16.09-.24.17l.06-.13Zm3.27-1.24c-.04.13-.08.53-.2.22-.09-.66.04-.37.2-.22Zm4.89-2.53c0 .2-.1.12-.24-.07.05-.06.13-.05.24.07Zm14.31-6.28v.03c-.18-.2-.12-.12 0-.03Zm.35.22a.54.54 0 0 0 0-.24c0 .14-.09.17-.17.13.04.14.1.25.17.1Zm-33.84 7.63.1.12c-.07.2-.09.05-.1-.12Z"/>
		<path d="m29.33 160.47-.1-.3c0 .1.02.22.1.3ZM19.6 164.2h-.02l.02.1v-.1ZM40.08 158.97c-.07-.07-.12-.18-.17-.28.01.15.06.25.17.28ZM46.04 152.38l-.19.17c.1-.04.14.08.2.16 0-.13-.07-.32 0-.33ZM48.12 155.8c.03-.07.06-.01.09-.08l-.03-.27c-.13.03-.2.25-.06.36v-.01ZM46.4 154.28c.06.48.17.3.31.2h-.02c-.01-.68-.16-.44-.29-.2ZM46.74 154.47s.08-.05.13-.03c0-.27-.06-.04-.13.03ZM44.8 153.15c.08.12-.01-.63.04-.43 0-.63-.39.79-.04.43ZM46.65 155.86l-.1-.59-.04.5.14.09ZM45.5 155.52l.23.15c0-.1 0-.16.05-.2-.14 0-.31-.13-.29.05ZM45.77 155.45c.07 0 .14-.01.18-.12-.04 0-.12.04-.18.12ZM46.35 156.08l-.07-.12-.16-.04.23.16ZM43.03 155.66l-.23.19c0 .2.09.32.17.24.05-.15.13-.24.07-.43h-.01ZM43.95 157.22c-.08-.12-.1-.25-.15-.45l.07.75.08-.3ZM43.26 157.47c0 .2-.29.62.01.55 0-.2.23-.4-.01-.55ZM39.43 156.99l.06-.01-.17-1.22.11 1.23ZM36.62 160.36c.34.24-.05-.76.26-.43.03-.3-.26-.27-.22-.52-.13.33-.24.17-.04.95Z"/>
		<path d="m36.66 159.41.06-.19c-.04.09-.05.15-.06.2ZM.25 169.69l-.15.27.32-.28H.25ZM1.22 169.64l-.7.36.69-.18s-.15-.07 0-.18h.01ZM25.74 163.5l-.03-.17c-.08-.2-.12-.2-.22-.2l.24.38h.01ZM23.16 163.55h.05l-.25-.66.2.66ZM21.37 164.97c.1 0 .14-.17.24-.17-.15.17-.5-.67-.24.17Z"/>
	</g>
	<defs>
		<clipPath id="a">
			<path fill="#fff" d="M0 0h322v170H0z"/>
		</clipPath>
	</defs>
</svg>