<svg width="348" height="153" viewBox="0 0 348 153" fill="none" xmlns="http://www.w3.org/2000/svg">
<path d="M346.547 2C328.424 21.8089 298.043 32.1201 274.641 43.1126C230.243 63.9678 185.284 82.7152 138.986 98.8726C112.896 107.978 86.7899 116.768 60.0902 123.923C46.3659 127.601 31.4023 129.98 18.728 136.739C15.3835 138.523 0.0643554 147.637 2.17898 144C4.40235 140.176 3 140.077 11.5 128M11.5 128C20.5 117.577 18 123.5 31.6277 104.199C34.6304 101.196 30.4349 106.973 30.1296 107.528C26.3951 114.318 16.0552 121.714 11.5 128ZM11.5 128C8.43542 132.229 1.99997 140.181 1.99997 145.062C1.99997 159.148 149.526 144.917 164.5 144" stroke="#1E1E1E" stroke-width="2.5" stroke-linecap="round"/>
</svg>
